  <svg
    class="fill-[#232323] dark:fill-gray-100"
    viewBox="0 0 309 57"
    version="1.1"
    xmlns="http://www.w3.org/2000/svg"
    xmlns:xlink="http://www.w3.org/1999/xlink"
  >
    <g
      id="perfect-bite-copy-2"
      stroke="none"
      stroke-width="1"
      fill-rule="evenodd"
    >
      <g id="Group" fill-rule="nonzero">
        <g id="PerfectBite-Logo">
          <path
            d="M22.3963579,51.8412957 C22.7607887,50.6438803 23.5769534,47.1501506 24.4909938,42.6122204 L24.6081843,42.0273343 C24.9219645,40.4530259 25.2453425,38.7638803 25.5643579,37.0092957 C29.3803579,38.6652957 34.6363579,39.3132957 39.0283579,37.5132957 C47.8843579,33.7692957 51.9163579,22.7532957 50.4763579,15.4092957 C49.4683579,10.2252957 46.3003579,0.073295674 28.3003579,0.00129567402 C-0.931642107,-0.214704326 -5.82764211,26.6412957 5.90835789,31.6812957 C12.4603579,34.4892957 18.1483579,30.7452957 18.8683579,25.0572957 C19.0843579,23.1132957 15.9883579,22.7532957 15.7723579,24.6252957 C14.9803579,30.5292957 11.3803579,32.0412957 7.06035789,30.3852957 C-4.17164211,25.9212957 4.90035789,-0.142704326 29.1643579,1.65729567 C39.4603579,2.44929567 44.5003579,10.8012957 42.5563579,21.3852957 C41.1163579,29.5212957 34.3483579,38.1612957 25.9963579,34.8492957 C27.5803579,25.9212957 28.8763579,15.7692957 28.2283579,10.2252957 C27.8683579,6.84129567 20.1643579,5.54529567 20.5243579,9.28929567 C21.2443579,17.1372957 17.5003579,45.4332957 15.7723579,52.8492957 C15.1963579,55.3692957 21.6763579,54.2172957 22.3963579,51.8412957 Z M76.6329293,25.2732957 C76.7769293,24.4812957 74.8329293,24.4092957 74.6889293,25.0572957 C73.1049293,30.5292957 69.0729293,44.1372957 60.6489293,44.0652957 C57.2649293,44.0652957 57.0489293,38.6652957 58.2009293,33.6252957 C63.1689293,33.9132957 68.9289293,29.6652957 67.3449293,25.8492957 C66.3369293,23.3292957 64.0329293,22.6092957 61.6569293,22.6092957 C61.0809293,22.6092957 60.5049293,22.6812957 59.9289293,22.7532957 C47.0409293,24.1932957 47.6889293,45.7932957 59.4969293,46.8012957 C69.2889293,47.5932957 75.3369293,33.1212957 76.6329293,25.2732957 Z M58.6329293,32.1852957 C59.5689293,28.8012957 61.2249293,25.7772957 62.8809293,24.9852957 C63.0969293,24.9132957 63.4569293,24.7692957 63.9609293,24.7692957 C64.6809293,24.6972957 65.6169293,25.1292957 65.6889293,26.7852957 C65.8329293,29.0172957 63.0249293,31.3212957 58.6329293,32.1852957 Z M85.5095008,50.1132957 C90.2615008,49.6812957 94.5095008,37.2972957 96.4535008,25.4172957 C96.5975008,24.8412957 94.7975008,24.6252957 94.5815008,25.4172957 C92.4935008,35.6412957 88.3895008,46.5852957 86.6615008,46.1532957 C86.0379956,46.0196874 86.7918951,41.9742501 87.3043937,37.3227547 L87.3547789,36.8557074 C87.6432995,34.1209088 87.8313152,31.2173781 87.5975008,28.8012957 C87.0935008,24.2652957 83.1335008,24.8412957 78.3815008,23.2572957 C79.2455008,20.6652957 80.0375008,17.2092957 79.9655008,15.6972957 C79.8215008,13.8252957 78.7415008,13.1052957 77.3735008,13.1052957 C76.5095008,13.1052957 75.5735008,13.3212957 74.7095008,13.7532957 C72.6215008,14.6172957 70.6055008,18.0732957 71.6135008,21.6012957 C72.5495008,24.7692957 77.8775008,26.0652957 79.3175008,26.7852957 C83.3495008,28.7292957 72.8375008,51.1212957 85.5095008,50.1132957 Z M76.7255008,22.1052957 C75.1415008,19.8732957 76.3655008,15.1212957 77.3735008,14.9772957 L77.5175008,14.9772957 L77.5175008,14.9772957 C78.5255008,15.1212957 77.7335008,19.0092957 76.7255008,22.1052957 Z M104.106072,56.3055772 C112.170072,56.2332957 112.098072,39.6012957 103.962072,36.7932957 C108.138072,37.2252957 118.074072,36.9372957 121.818072,25.2732957 C122.034072,24.5532957 120.306072,24.2652957 119.946072,25.2012957 C116.490072,34.4892957 108.858072,35.3532957 101.298072,34.4172957 C101.586072,31.9692957 101.874072,29.4492957 102.306072,27.0012957 C109.650072,20.4492957 122.970072,2.37729567 109.938072,1.08129567 L109.146072,1.08129567 L109.146072,1.08129567 C93.8100722,1.29729567 87.1140722,56.4492957 104.106072,56.3055772 Z M103.098072,22.3212957 C105.186072,12.0972957 108.354072,3.16929567 111.738072,3.09729567 L112.098072,3.09729567 L112.098072,3.09729567 C116.346072,3.74529567 109.002072,15.5532957 103.098072,22.3212957 Z M102.738072,52.8492957 C100.938072,51.3372957 100.506072,45.2172957 101.010072,37.8012957 C110.586072,41.4732957 108.498072,56.0892957 102.738072,52.8492957 Z M143.006644,25.2732957 C143.150644,24.4812957 141.206644,24.4092957 141.062644,25.0572957 C139.478644,30.5292957 135.446644,44.1372957 127.022644,44.0652957 C123.638644,44.0652957 123.422644,38.6652957 124.574644,33.6252957 C129.542644,33.9132957 135.302644,29.6652957 133.718644,25.8492957 C132.710644,23.3292957 130.406644,22.6092957 128.030644,22.6092957 C127.454644,22.6092957 126.878644,22.6812957 126.302644,22.7532957 C113.414644,24.1932957 114.062644,45.7932957 125.870644,46.8012957 C135.662644,47.5932957 141.710644,33.1212957 143.006644,25.2732957 Z M125.006644,32.1852957 C125.942644,28.8012957 127.598644,25.7772957 129.254644,24.9852957 C129.470644,24.9132957 129.830644,24.7692957 130.334644,24.7692957 C131.054644,24.6972957 131.990644,25.1292957 132.062644,26.7852957 C132.206644,29.0172957 129.398644,31.3212957 125.006644,32.1852957 Z M165.563215,25.4172957 C165.779215,24.5532957 163.835215,23.9772957 163.547215,25.3452957 C161.963215,31.8252957 158.723215,47.0892957 150.515215,45.0732957 C144.107215,43.4892957 145.907215,21.2412957 152.315215,21.4572957 C154.835215,21.5292957 154.547215,23.4732957 153.611215,25.2732957 C153.251215,26.1372957 155.267215,26.9292957 156.347215,25.5612957 C157.427215,24.1932957 156.779215,19.8732957 151.955215,19.6572957 C151.739215,19.6572957 151.451215,19.5852957 151.235215,19.6572957 C136.907215,19.7292957 133.379215,47.3052957 150.011215,47.8092957 C160.523215,48.0972957 163.475215,33.9852957 165.563215,25.4172957 Z M169.831786,48.0252957 C176.599786,47.6652957 181.999786,34.4892957 185.455786,25.3452957 C185.743786,24.6252957 183.871786,23.9052957 183.367786,24.9852957 C181.567786,28.5852957 175.735786,45.2172957 171.775786,45.0012957 C169.399786,44.9292957 170.119786,31.9692957 172.207786,19.3692957 C176.095786,19.1532957 179.911786,19.0812957 183.511786,19.2972957 C184.591786,19.3692957 183.871786,17.7132957 182.287786,17.3532957 C181.351786,17.1372957 177.535786,16.7052957 172.711786,16.5612957 C172.927786,15.3372957 173.215786,14.1132957 173.431786,12.9612957 C174.007786,10.3692957 170.983786,8.71329567 168.823786,8.64129567 C167.887786,8.64129567 167.023786,9.00129567 166.807786,9.79329567 C166.591786,10.5852957 165.943786,13.1772957 165.223786,16.5612957 C162.487786,16.7052957 159.823786,16.9932957 157.375786,17.4972957 C155.863786,17.7852957 157.375786,20.7372957 159.247786,20.5212957 C160.975786,20.3052957 162.775786,20.1612957 164.575786,19.9452957 C162.487786,31.5372957 160.975786,48.5292957 169.831786,48.0252957 Z M242.880929,34.4892957 C249.576929,30.8892957 251.016929,26.6412957 251.304929,25.4172957 C251.520929,24.1932957 249.864929,24.1212957 249.360929,25.2012957 C247.992929,27.8652957 245.544929,29.8812957 242.520929,31.4652957 C241.656929,28.2252957 239.280929,25.2732957 234.816929,23.4012957 C234.384929,23.1852957 234.024929,23.0412957 233.592929,22.9692957 C235.392929,17.7852957 234.888929,11.4492957 231.720929,5.83329567 C230.280929,3.31329567 226.824929,0.937295674 223.224929,1.00929567 C222.000929,1.08129567 220.776929,1.36929567 219.624929,2.01729567 C213.936929,5.18529567 210.912929,21.0972957 210.264929,33.7692957 C210.192929,25.2732957 211.056929,15.1212957 211.992929,8.06529567 C212.712929,2.80929567 206.592929,0.937295674 205.656929,4.53729567 C202.200929,17.7132957 200.760929,41.0412957 208.176929,49.6812957 C209.832929,51.6252957 212.424929,50.6172957 212.352929,48.9612957 L212.352929,48.8892957 L212.352929,48.8892957 C213.576929,37.6572957 214.728929,3.88929567 223.152929,3.81729567 C227.256929,3.74529567 227.760929,14.9052957 226.176929,22.6092957 C219.840929,23.1852957 216.600929,26.7132957 219.192929,29.9532957 C221.064929,32.3292957 225.456929,31.8972957 227.616929,30.6012957 C229.488929,29.5212957 231.000929,27.9372957 232.080929,26.1372957 C235.104929,28.2972957 235.680929,31.3932957 234.816929,34.6332957 C227.040929,37.3692957 218.832929,39.4572957 216.672929,44.4972957 C215.016929,48.3132957 217.536929,50.8332957 222.720929,51.8412957 C232.872929,53.8572957 242.880929,43.6332957 242.880929,34.4892957 Z M222.360929,29.5932957 C218.976929,29.3772957 220.848929,25.1292957 225.672929,24.9132957 C224.808929,27.7212957 223.656929,29.6652957 222.360929,29.5932957 Z M219.408929,48.4572957 C216.456929,46.8012957 219.912929,41.9052957 233.520929,38.0172957 C230.208929,44.4972957 222.720929,50.2572957 219.408929,48.4572957 Z M255.357501,21.8172957 C255.789501,20.8092957 257.157501,16.3452957 257.229501,15.5532957 C257.229501,14.4732957 255.861501,13.8972957 254.493501,13.9692957 C253.125501,13.9692957 251.685501,14.5452957 251.397501,15.5532957 C251.109501,16.4892957 251.397501,20.0172957 251.541501,20.8092957 C251.829501,22.4652957 254.925501,22.8252957 255.357501,21.8172957 Z M257.301501,45.8652957 C261.477501,44.2092957 265.941501,32.4732957 267.957501,25.2012957 C268.101501,24.6972957 266.301501,24.1932957 266.013501,25.2012957 C265.387101,27.4908957 264.423741,30.1304157 263.354757,32.6805117 L263.13962,33.1892084 C260.686998,38.9379741 257.770941,44.0768157 257.085501,43.4892957 C255.285501,41.9772957 257.013501,29.6652957 257.013501,25.3452957 C257.013501,24.1932957 254.853501,23.4732957 252.909501,23.5452957 C251.397501,23.6172957 250.029501,24.1932957 249.813501,25.2732957 C248.877501,30.7452957 248.373501,38.9532957 250.101501,42.9132957 C251.325501,45.7212957 253.773501,47.2332957 257.301501,45.8652957 Z M272.226072,48.0252957 C278.994072,47.6652957 284.394072,34.4892957 287.850072,25.3452957 C288.138072,24.6252957 286.266072,23.9052957 285.762072,24.9852957 C283.962072,28.5852957 278.130072,45.2172957 274.170072,45.0012957 C271.794072,44.9292957 272.514072,31.9692957 274.602072,19.3692957 C278.490072,19.1532957 282.306072,19.0812957 285.906072,19.2972957 C286.986072,19.3692957 286.266072,17.7132957 284.682072,17.3532957 C283.746072,17.1372957 279.930072,16.7052957 275.106072,16.5612957 C275.322072,15.3372957 275.610072,14.1132957 275.826072,12.9612957 C276.402072,10.3692957 273.378072,8.71329567 271.218072,8.64129567 C270.282072,8.64129567 269.418072,9.00129567 269.202072,9.79329567 C268.986072,10.5852957 268.338072,13.1772957 267.618072,16.5612957 C264.882072,16.7052957 262.218072,16.9932957 259.770072,17.4972957 C258.258072,17.7852957 259.770072,20.7372957 261.642072,20.5212957 C263.370072,20.3052957 265.170072,20.1612957 266.970072,19.9452957 C264.882072,31.5372957 263.370072,48.5292957 272.226072,48.0252957 Z M308.606644,25.2732957 C308.750644,24.4812957 306.806644,24.4092957 306.662644,25.0572957 C305.078644,30.5292957 301.046644,44.1372957 292.622644,44.0652957 C289.238644,44.0652957 289.022644,38.6652957 290.174644,33.6252957 C295.142644,33.9132957 300.902644,29.6652957 299.318644,25.8492957 C298.310644,23.3292957 296.006644,22.6092957 293.630644,22.6092957 C293.054644,22.6092957 292.478644,22.6812957 291.902644,22.7532957 C279.014644,24.1932957 279.662644,45.7932957 291.470644,46.8012957 C301.262644,47.5932957 307.310644,33.1212957 308.606644,25.2732957 Z M290.606644,32.1852957 C291.542644,28.8012957 293.198644,25.7772957 294.854644,24.9852957 C295.070644,24.9132957 295.430644,24.7692957 295.934644,24.7692957 C296.654644,24.6972957 297.590644,25.1292957 297.662644,26.7852957 C297.806644,29.0172957 294.998644,31.3212957 290.606644,32.1852957 Z"
            id="PerfectBite"></path>
          <path
            d="M62.1339844,80.709375 L62.1339844,80.4925781 C61.6925781,80.4574219 61.4054687,80.3773438 61.2726562,80.2523438 C61.1398437,80.1273438 61.0734375,79.8460938 61.0734375,79.4085938 L61.0734375,79.4085938 L61.0734375,76.9359375 L64.7121094,76.9359375 L64.7121094,79.2679688 C64.7121094,79.7875 64.6544922,80.1097656 64.5392578,80.2347656 C64.4240234,80.3597656 64.1300781,80.4457031 63.6574219,80.4925781 L63.6574219,80.4925781 L63.6574219,80.709375 L66.9914062,80.709375 L66.9914062,80.4925781 C66.55,80.4535156 66.2638672,80.3724609 66.1330078,80.2494141 C66.0021484,80.1263672 65.9367187,79.8460938 65.9367187,79.4085938 L65.9367187,79.4085938 L65.9367187,74.0707031 C65.9367187,73.6410156 66.0021484,73.3617188 66.1330078,73.2328125 C66.2638672,73.1039063 66.55,73.0238281 66.9914062,72.9925781 L66.9914062,72.9925781 L66.9914062,72.7699219 L63.6574219,72.7699219 L63.6574219,72.9925781 C64.1027344,73.0238281 64.3898437,73.1039063 64.51875,73.2328125 C64.6476562,73.3617188 64.7121094,73.6410156 64.7121094,74.0707031 L64.7121094,74.0707031 L64.7121094,76.4085938 L61.0734375,76.4085938 L61.0734375,74.0707031 C61.0734375,73.6410156 61.1398437,73.3617188 61.2726562,73.2328125 C61.4054687,73.1039063 61.6925781,73.0238281 62.1339844,72.9925781 L62.1339844,72.9925781 L62.1339844,72.7699219 L58.8,72.7699219 L58.8,72.9925781 C59.2414062,73.0238281 59.5275391,73.1039063 59.6583984,73.2328125 C59.7892578,73.3617188 59.8546875,73.6410156 59.8546875,74.0707031 L59.8546875,74.0707031 L59.8546875,79.2679688 C59.8546875,79.7875 59.7960937,80.1087891 59.6789062,80.2318359 C59.5617187,80.3548828 59.26875,80.4417969 58.8,80.4925781 L58.8,80.4925781 L58.8,80.709375 L62.1339844,80.709375 Z M72.8273437,80.709375 L72.8273437,80.4925781 C72.5460937,80.4691406 72.3546875,80.4339844 72.253125,80.3871094 C72.0890625,80.3089844 72.0070312,80.1683594 72.0070312,79.9652344 C72.0070312,79.8636719 72.0373047,79.7259766 72.0978516,79.5521484 C72.1583984,79.3783203 72.3449219,78.8988281 72.6574219,78.1136719 L72.6574219,78.1136719 L75.7980469,78.1136719 L76.2960937,79.2679688 C76.3664062,79.4320313 76.4210937,79.5882813 76.4601562,79.7367188 C76.4992187,79.8851563 76.51875,79.9886719 76.51875,80.0472656 C76.51875,80.2230469 76.4679687,80.3333984 76.3664062,80.3783203 C76.2648437,80.4232422 76.0382812,80.4613281 75.6867187,80.4925781 L75.6867187,80.4925781 L75.6867187,80.709375 L78.7394531,80.709375 L78.7394531,80.4925781 C78.4582031,80.4535156 78.2580078,80.3802734 78.1388672,80.2728516 C78.0197266,80.1654297 77.8605469,79.8851563 77.6613281,79.4320313 L77.6613281,79.4320313 L74.6730469,72.6292969 L74.4386719,72.6292969 L71.9367187,78.5179688 C71.5617187,79.4007813 71.2970703,79.9417969 71.1427734,80.1410156 C70.9884766,80.3402344 70.7570312,80.4574219 70.4484375,80.4925781 L70.4484375,80.4925781 L70.4484375,80.709375 L72.8273437,80.709375 Z M75.628125,77.6273438 L72.8683594,77.6273438 L74.2394531,74.3226563 L75.628125,77.6273438 Z M89.2804687,80.85 L89.2804687,74.5335938 C89.2804687,73.9046875 89.3566406,73.5023438 89.5089844,73.3265625 C89.6613281,73.1507813 89.9660156,73.0394531 90.4230469,72.9925781 L90.4230469,72.9925781 L90.4230469,72.7699219 L87.6046875,72.7699219 L87.6046875,72.9925781 C88.0460937,73.0316406 88.33125,73.115625 88.4601562,73.2445313 C88.6554687,73.44375 88.753125,73.8734375 88.753125,74.5335938 L88.753125,74.5335938 L88.753125,78.5472656 L84.1300781,72.7699219 L82.0734375,72.7699219 L82.0734375,72.9925781 C82.3195312,73.0003906 82.5041016,73.0287109 82.6271484,73.0775391 C82.7501953,73.1263672 82.8996094,73.2542969 83.0753906,73.4613281 L83.0753906,73.4613281 L83.2394531,73.6546875 L83.2394531,78.9457031 C83.2394531,79.5785156 83.1691406,79.9818359 83.0285156,80.1556641 C82.8878906,80.3294922 82.5695312,80.4417969 82.0734375,80.4925781 L82.0734375,80.4925781 L82.0734375,80.709375 L84.8917969,80.709375 L84.8917969,80.4925781 C84.4582031,80.4457031 84.1789062,80.3578125 84.0539062,80.2289063 C83.8625,80.0296875 83.7667969,79.6019531 83.7667969,78.9457031 L83.7667969,78.9457031 L83.7667969,74.2699219 L89.0753906,80.85 L89.2804687,80.85 Z M97.1320312,80.709375 C98.0265625,80.709375 98.7804687,80.5960938 99.39375,80.3695313 C99.7296875,80.2484375 100.053906,80.0707031 100.366406,79.8363281 C100.858594,79.4652344 101.226758,79.0101563 101.470898,78.4710938 C101.715039,77.9320313 101.837109,77.3636719 101.837109,76.7660156 C101.837109,75.1058594 101.157422,73.9535156 99.7980469,73.3089844 C99.0441406,72.9496094 98.1222656,72.7699219 97.0324219,72.7699219 L97.0324219,72.7699219 L93.7980469,72.7699219 L93.7980469,72.9925781 C94.2433594,73.0238281 94.5304687,73.1019531 94.659375,73.2269531 C94.7882812,73.3519531 94.8527344,73.6332031 94.8527344,74.0707031 L94.8527344,74.0707031 L94.8527344,79.4085938 C94.8527344,79.8617188 94.7863281,80.1439453 94.6535156,80.2552734 C94.5207031,80.3666016 94.2355469,80.4457031 93.7980469,80.4925781 L93.7980469,80.4925781 L93.7980469,80.709375 L97.1320312,80.709375 Z M96.8097656,80.2640625 C96.5089844,80.2640625 96.3107422,80.2328125 96.2150391,80.1703125 C96.1193359,80.1078125 96.0714844,79.9789063 96.0714844,79.7835938 L96.0714844,79.7835938 L96.0714844,73.6839844 C96.0714844,73.4847656 96.1193359,73.3558594 96.2150391,73.2972656 C96.3107422,73.2386719 96.4933594,73.209375 96.7628906,73.209375 C97.8449219,73.209375 98.7140625,73.475 99.3703125,74.00625 C100.135937,74.6273438 100.51875,75.553125 100.51875,76.7835938 C100.51875,78.1625 100.053906,79.1371094 99.1242187,79.7074219 C98.51875,80.0785156 97.7472656,80.2640625 96.8097656,80.2640625 Z M109.688672,80.9085938 C110.473828,80.9085938 111.202344,80.69375 111.874219,80.2640625 C112.26875,80.0101563 112.598828,79.7152344 112.864453,79.3792969 L112.864453,79.3792969 L112.641797,79.1566406 C112.282422,79.4964844 111.952344,79.7503906 111.651562,79.9183594 C111.128125,80.2152344 110.555859,80.3636719 109.934766,80.3636719 C109.075391,80.3636719 108.36543,80.0443359 107.804883,79.4056641 C107.244336,78.7669922 106.964062,77.9125 106.964062,76.8421875 C106.964062,75.678125 107.230664,74.7640625 107.763867,74.1 C108.29707,73.4359375 108.983594,73.1039063 109.823437,73.1039063 C110.655469,73.1039063 111.317578,73.4125 111.809766,74.0296875 C112.067578,74.3578125 112.276562,74.7894531 112.436719,75.3246094 L112.436719,75.3246094 L112.712109,75.3246094 L112.600781,72.6292969 L112.348828,72.6292969 C112.309766,72.7621094 112.239453,72.8597656 112.137891,72.9222656 C112.036328,72.9847656 111.928906,73.0160156 111.815625,73.0160156 C111.760937,73.0160156 111.505078,72.9515625 111.048047,72.8226563 C110.591016,72.69375 110.145703,72.6292969 109.712109,72.6292969 C108.466016,72.6292969 107.454297,73.0453125 106.676953,73.8773438 C105.938672,74.6703125 105.569531,75.6507813 105.569531,76.81875 C105.569531,77.959375 105.919141,78.9105469 106.618359,79.6722656 C107.376172,80.4964844 108.399609,80.9085938 109.688672,80.9085938 Z M119.743359,80.709375 L119.743359,80.4925781 C119.290234,80.4535156 118.996289,80.3744141 118.861523,80.2552734 C118.726758,80.1361328 118.659375,79.8539063 118.659375,79.4085938 L118.659375,79.4085938 L118.659375,77.0472656 L119.327344,77.0179688 L122.186719,80.709375 L124.120312,80.709375 L124.120312,80.4925781 C123.882031,80.4691406 123.686719,80.4144531 123.534375,80.3285156 C123.382031,80.2425781 123.229687,80.1058594 123.077344,79.9183594 L123.077344,79.9183594 L120.604687,76.8773438 C121.272656,76.7757813 121.800977,76.5648438 122.189648,76.2445313 C122.57832,75.9242188 122.772656,75.4652344 122.772656,74.8675781 C122.772656,73.9769531 122.335156,73.365625 121.460156,73.0335938 C120.999219,72.8578125 120.423047,72.7699219 119.731641,72.7699219 L119.731641,72.7699219 L116.409375,72.7699219 L116.409375,72.9925781 C116.842969,73.0277344 117.123242,73.1107422 117.250195,73.2416016 C117.377148,73.3724609 117.440625,73.6488281 117.440625,74.0707031 L117.440625,74.0707031 L117.440625,79.2679688 C117.440625,79.7679688 117.383984,80.0863281 117.270703,80.2230469 C117.157422,80.3597656 116.870312,80.4496094 116.409375,80.4925781 L116.409375,80.4925781 L116.409375,80.709375 L119.743359,80.709375 Z M118.659375,76.6019531 L118.659375,73.6429688 C118.659375,73.4632813 118.697461,73.3490234 118.773633,73.3001953 C118.849805,73.2513672 119.057812,73.2269531 119.397656,73.2269531 C119.901562,73.2269531 120.305859,73.2953125 120.610547,73.4320313 C121.180859,73.6859375 121.466016,74.1605469 121.466016,74.8558594 C121.466016,75.5785156 121.147656,76.0707031 120.510937,76.3324219 C120.139844,76.4808594 119.522656,76.5707031 118.659375,76.6019531 L118.659375,76.6019531 Z M129.833203,80.709375 L129.833203,80.4925781 C129.551953,80.4691406 129.360547,80.4339844 129.258984,80.3871094 C129.094922,80.3089844 129.012891,80.1683594 129.012891,79.9652344 C129.012891,79.8636719 129.043164,79.7259766 129.103711,79.5521484 C129.164258,79.3783203 129.350781,78.8988281 129.663281,78.1136719 L129.663281,78.1136719 L132.803906,78.1136719 L133.301953,79.2679688 C133.372266,79.4320313 133.426953,79.5882813 133.466016,79.7367188 C133.505078,79.8851563 133.524609,79.9886719 133.524609,80.0472656 C133.524609,80.2230469 133.473828,80.3333984 133.372266,80.3783203 C133.270703,80.4232422 133.044141,80.4613281 132.692578,80.4925781 L132.692578,80.4925781 L132.692578,80.709375 L135.745313,80.709375 L135.745313,80.4925781 C135.464063,80.4535156 135.263867,80.3802734 135.144727,80.2728516 C135.025586,80.1654297 134.866406,79.8851563 134.667188,79.4320313 L134.667188,79.4320313 L131.678906,72.6292969 L131.444531,72.6292969 L128.942578,78.5179688 C128.567578,79.4007813 128.30293,79.9417969 128.148633,80.1410156 C127.994336,80.3402344 127.762891,80.4574219 127.454297,80.4925781 L127.454297,80.4925781 L127.454297,80.709375 L129.833203,80.709375 Z M132.633984,77.6273438 L129.874219,77.6273438 L131.245313,74.3226563 L132.633984,77.6273438 Z M142.442578,80.709375 L142.442578,80.4925781 C141.989453,80.4574219 141.695508,80.3783203 141.560742,80.2552734 C141.425977,80.1322266 141.358594,79.85 141.358594,79.4085938 L141.358594,79.4085938 L141.358594,76.7835938 L143.092969,76.7835938 C143.600781,76.7835938 143.925,76.8587891 144.065625,77.0091797 C144.20625,77.1595703 144.321484,77.4671875 144.411328,77.9320313 L144.411328,77.9320313 L144.692578,77.9320313 L144.692578,75.1546875 L144.411328,75.1546875 C144.325391,75.6195313 144.212109,75.928125 144.071484,76.0804688 C143.930859,76.2328125 143.604688,76.3089844 143.092969,76.3089844 L143.092969,76.3089844 L141.358594,76.3089844 L141.358594,73.63125 C141.358594,73.4710938 141.381055,73.3636719 141.425977,73.3089844 C141.470898,73.2542969 141.573438,73.2269531 141.733594,73.2269531 L141.733594,73.2269531 L143.374219,73.2269531 C144.042188,73.2269531 144.489453,73.3001953 144.716016,73.4466797 C144.942578,73.5931641 145.096875,73.9417969 145.178906,74.4925781 L145.178906,74.4925781 L145.512891,74.4925781 L145.471875,72.7699219 L139.079297,72.7699219 L139.079297,72.9925781 C139.524609,73.0238281 139.811719,73.1048828 139.940625,73.2357422 C140.069531,73.3666016 140.133984,73.6449219 140.133984,74.0707031 L140.133984,74.0707031 L140.133984,79.2679688 C140.133984,79.7875 140.076367,80.1087891 139.961133,80.2318359 C139.845898,80.3548828 139.551953,80.4417969 139.079297,80.4925781 L139.079297,80.4925781 L139.079297,80.709375 L142.442578,80.709375 Z M154.003125,80.709375 L154.003125,80.4925781 C153.514844,80.4574219 153.198438,80.3841797 153.053906,80.2728516 C152.909375,80.1615234 152.837109,79.8734375 152.837109,79.4085938 L152.837109,79.4085938 L152.837109,73.2679688 L153.505078,73.2679688 C154.200391,73.2679688 154.656445,73.3646484 154.873242,73.5580078 C155.090039,73.7513672 155.26875,74.1683594 155.409375,74.8089844 L155.409375,74.8089844 L155.696484,74.8089844 L155.632031,72.7699219 L148.852734,72.7699219 L148.782422,74.8089844 L149.075391,74.8089844 C149.196484,74.1644531 149.377148,73.7464844 149.617383,73.5550781 C149.857617,73.3636719 150.309766,73.2679688 150.973828,73.2679688 L150.973828,73.2679688 L151.641797,73.2679688 L151.641797,79.2679688 C151.641797,79.7875 151.579297,80.1117188 151.454297,80.240625 C151.329297,80.3695313 151.012891,80.4535156 150.505078,80.4925781 L150.505078,80.4925781 L150.505078,80.709375 L154.003125,80.709375 Z M165.569531,80.709375 L166.114453,78.6820313 L165.780469,78.6820313 C165.471875,79.365625 165.124219,79.7962891 164.7375,79.9740234 C164.350781,80.1517578 163.751172,80.240625 162.938672,80.240625 C162.188672,80.240625 161.738477,80.2191406 161.588086,80.1761719 C161.437695,80.1332031 161.3625,79.9925781 161.3625,79.7542969 L161.3625,79.7542969 L161.3625,76.7835938 L163.208203,76.7835938 C163.716016,76.7835938 164.040234,76.8587891 164.180859,77.0091797 C164.321484,77.1595703 164.436719,77.4671875 164.526563,77.9320313 L164.526563,77.9320313 L164.807813,77.9320313 L164.807813,75.1546875 L164.526563,75.1546875 C164.440625,75.6195313 164.327344,75.928125 164.186719,76.0804688 C164.046094,76.2328125 163.719922,76.3089844 163.208203,76.3089844 L163.208203,76.3089844 L161.3625,76.3089844 L161.3625,73.63125 C161.3625,73.475 161.383008,73.3685547 161.424023,73.3119141 C161.465039,73.2552734 161.573438,73.2269531 161.749219,73.2269531 L161.749219,73.2269531 L163.378125,73.2269531 C164.08125,73.2269531 164.534375,73.3050781 164.7375,73.4613281 C164.940625,73.6175781 165.092969,73.9613281 165.194531,74.4925781 L165.194531,74.4925781 L165.499219,74.4925781 L165.458203,72.7699219 L159.083203,72.7699219 L159.083203,72.9925781 C159.528516,73.0238281 159.815625,73.1048828 159.944531,73.2357422 C160.073438,73.3666016 160.137891,73.6449219 160.137891,74.0707031 L160.137891,74.0707031 L160.137891,79.4085938 C160.137891,79.8617188 160.072461,80.1439453 159.941602,80.2552734 C159.810742,80.3666016 159.524609,80.4457031 159.083203,80.4925781 L159.083203,80.4925781 L159.083203,80.709375 L165.569531,80.709375 Z M172.805859,80.709375 C173.700391,80.709375 174.454297,80.5960938 175.067578,80.3695313 C175.403516,80.2484375 175.727734,80.0707031 176.040234,79.8363281 C176.532422,79.4652344 176.900586,79.0101563 177.144727,78.4710938 C177.388867,77.9320313 177.510938,77.3636719 177.510938,76.7660156 C177.510938,75.1058594 176.83125,73.9535156 175.471875,73.3089844 C174.717969,72.9496094 173.796094,72.7699219 172.70625,72.7699219 L172.70625,72.7699219 L169.471875,72.7699219 L169.471875,72.9925781 C169.917188,73.0238281 170.204297,73.1019531 170.333203,73.2269531 C170.462109,73.3519531 170.526563,73.6332031 170.526563,74.0707031 L170.526563,74.0707031 L170.526563,79.4085938 C170.526563,79.8617188 170.460156,80.1439453 170.327344,80.2552734 C170.194531,80.3666016 169.909375,80.4457031 169.471875,80.4925781 L169.471875,80.4925781 L169.471875,80.709375 L172.805859,80.709375 Z M172.483594,80.2640625 C172.182813,80.2640625 171.98457,80.2328125 171.888867,80.1703125 C171.793164,80.1078125 171.745313,79.9789063 171.745313,79.7835938 L171.745313,79.7835938 L171.745313,73.6839844 C171.745313,73.4847656 171.793164,73.3558594 171.888867,73.2972656 C171.98457,73.2386719 172.167188,73.209375 172.436719,73.209375 C173.51875,73.209375 174.387891,73.475 175.044141,74.00625 C175.809766,74.6273438 176.192578,75.553125 176.192578,76.7835938 C176.192578,78.1625 175.727734,79.1371094 174.798047,79.7074219 C174.192578,80.0785156 173.421094,80.2640625 172.483594,80.2640625 Z M192.100781,80.8675781 C192.839063,80.8675781 193.445508,80.6566406 193.920117,80.2347656 C194.394727,79.8128906 194.632031,79.2875 194.632031,78.6585938 C194.632031,78.1898438 194.499219,77.7835938 194.233594,77.4398438 C193.964063,77.1 193.499219,76.7269531 192.839063,76.3207031 L192.839063,76.3207031 L191.784375,75.6703125 C191.389844,75.428125 191.098828,75.1957031 190.911328,74.9730469 C190.723828,74.7542969 190.630078,74.490625 190.630078,74.1820313 C190.630078,73.8382813 190.752148,73.5697266 190.996289,73.3763672 C191.24043,73.1830078 191.526563,73.0863281 191.854688,73.0863281 C192.276563,73.0863281 192.70332,73.2386719 193.134961,73.5433594 C193.566602,73.8480469 193.880078,74.3851563 194.075391,75.1546875 L194.075391,75.1546875 L194.3625,75.1546875 L194.098828,72.6 L193.852734,72.6 C193.821484,72.7289063 193.777539,72.8285156 193.720898,72.8988281 C193.664258,72.9691406 193.561719,73.0042969 193.413281,73.0042969 C193.358594,73.0042969 193.138867,72.9369141 192.754102,72.8021484 C192.369336,72.6673828 192.040234,72.6 191.766797,72.6 C191.102734,72.6 190.569531,72.8011719 190.167188,73.2035156 C189.764844,73.6058594 189.563672,74.1097656 189.563672,74.7152344 C189.563672,75.1722656 189.733594,75.5902344 190.073438,75.9691406 C190.257031,76.1683594 190.503125,76.365625 190.811719,76.5609375 L190.811719,76.5609375 L191.837109,77.1996094 C192.426953,77.5667969 192.813672,77.8421875 192.997266,78.0257813 C193.278516,78.3148438 193.419141,78.6546875 193.419141,79.0453125 C193.419141,79.4789063 193.279492,79.8167969 193.000195,80.0589844 C192.720898,80.3011719 192.389844,80.4222656 192.007031,80.4222656 C191.3,80.4222656 190.708203,80.1429688 190.231641,79.584375 C189.958203,79.2640625 189.719922,78.834375 189.516797,78.2953125 L189.516797,78.2953125 L189.241406,78.2953125 L189.598828,80.85 L189.8625,80.85 C189.878125,80.7523438 189.910352,80.6605469 189.95918,80.5746094 C190.008008,80.4886719 190.102734,80.4457031 190.243359,80.4457031 C190.301953,80.4457031 190.533398,80.5160156 190.937695,80.6566406 C191.341992,80.7972656 191.729688,80.8675781 192.100781,80.8675781 Z M202.208203,80.85 L204.053906,75.7699219 L205.483594,79.4613281 L205.969922,80.85 L206.151563,80.85 L206.872266,78.6703125 L207.370313,77.2933594 L208.647656,73.725 C208.749219,73.4476563 208.901563,73.2523438 209.104688,73.1390625 C209.217969,73.0726563 209.382031,73.0238281 209.596875,72.9925781 L209.596875,72.9925781 L209.596875,72.7699219 L207.217969,72.7699219 L207.217969,72.9925781 C207.452344,73.0003906 207.628125,73.0296875 207.745313,73.0804688 C207.95625,73.1664063 208.061719,73.3207031 208.061719,73.5433594 C208.061719,73.6058594 208.051953,73.6878906 208.032422,73.7894531 C208.001172,73.9691406 207.942578,74.1742188 207.856641,74.4046875 L207.856641,74.4046875 L206.356641,78.4769531 L204.622266,73.9769531 C204.559766,73.8128906 204.520703,73.7044922 204.505078,73.6517578 C204.489453,73.5990234 204.481641,73.5375 204.481641,73.4671875 C204.481641,73.2601563 204.571484,73.1234375 204.751172,73.0570313 C204.864453,73.0179688 205.071484,72.9964844 205.372266,72.9925781 L205.372266,72.9925781 L205.372266,72.7699219 L202.161328,72.7699219 L202.161328,72.9925781 C202.415234,72.9964844 202.604688,73.0257813 202.729688,73.0804688 C202.940625,73.1703125 203.098828,73.3480469 203.204297,73.6136719 L203.204297,73.6136719 L203.772656,75.0609375 L202.495313,78.4476563 L200.760938,73.9359375 C200.717969,73.81875 200.685742,73.7230469 200.664258,73.6488281 C200.642773,73.5746094 200.632031,73.4984375 200.632031,73.4203125 C200.632031,73.2445313 200.721875,73.1234375 200.901563,73.0570313 C201.003125,73.021875 201.173047,73.0003906 201.411328,72.9925781 L201.411328,72.9925781 L201.411328,72.7699219 L198.469922,72.7699219 L198.469922,72.9925781 C198.821484,73.0121094 199.080273,73.1537109 199.246289,73.4173828 C199.412305,73.6810547 199.708203,74.3910156 200.133984,75.5472656 L200.133984,75.5472656 L201.165234,78.3539063 L202.026563,80.85 L202.208203,80.85 Z M219.364453,80.709375 L219.909375,78.6820313 L219.575391,78.6820313 C219.266797,79.365625 218.919141,79.7962891 218.532422,79.9740234 C218.145703,80.1517578 217.546094,80.240625 216.733594,80.240625 C215.983594,80.240625 215.533398,80.2191406 215.383008,80.1761719 C215.232617,80.1332031 215.157422,79.9925781 215.157422,79.7542969 L215.157422,79.7542969 L215.157422,76.7835938 L217.003125,76.7835938 C217.510938,76.7835938 217.835156,76.8587891 217.975781,77.0091797 C218.116406,77.1595703 218.231641,77.4671875 218.321484,77.9320313 L218.321484,77.9320313 L218.602734,77.9320313 L218.602734,75.1546875 L218.321484,75.1546875 C218.235547,75.6195313 218.122266,75.928125 217.981641,76.0804688 C217.841016,76.2328125 217.514844,76.3089844 217.003125,76.3089844 L217.003125,76.3089844 L215.157422,76.3089844 L215.157422,73.63125 C215.157422,73.475 215.17793,73.3685547 215.218945,73.3119141 C215.259961,73.2552734 215.368359,73.2269531 215.544141,73.2269531 L215.544141,73.2269531 L217.173047,73.2269531 C217.876172,73.2269531 218.329297,73.3050781 218.532422,73.4613281 C218.735547,73.6175781 218.887891,73.9613281 218.989453,74.4925781 L218.989453,74.4925781 L219.294141,74.4925781 L219.253125,72.7699219 L212.878125,72.7699219 L212.878125,72.9925781 C213.323438,73.0238281 213.610547,73.1048828 213.739453,73.2357422 C213.868359,73.3666016 213.932813,73.6449219 213.932813,74.0707031 L213.932813,74.0707031 L213.932813,79.4085938 C213.932813,79.8617188 213.867383,80.1439453 213.736523,80.2552734 C213.605664,80.3666016 213.319531,80.4457031 212.878125,80.4925781 L212.878125,80.4925781 L212.878125,80.709375 L219.364453,80.709375 Z M229.694531,80.709375 L230.239453,78.6820313 L229.905469,78.6820313 C229.596875,79.365625 229.249219,79.7962891 228.8625,79.9740234 C228.475781,80.1517578 227.876172,80.240625 227.063672,80.240625 C226.313672,80.240625 225.863477,80.2191406 225.713086,80.1761719 C225.562695,80.1332031 225.4875,79.9925781 225.4875,79.7542969 L225.4875,79.7542969 L225.4875,76.7835938 L227.333203,76.7835938 C227.841016,76.7835938 228.165234,76.8587891 228.305859,77.0091797 C228.446484,77.1595703 228.561719,77.4671875 228.651563,77.9320313 L228.651563,77.9320313 L228.932813,77.9320313 L228.932813,75.1546875 L228.651563,75.1546875 C228.565625,75.6195313 228.452344,75.928125 228.311719,76.0804688 C228.171094,76.2328125 227.844922,76.3089844 227.333203,76.3089844 L227.333203,76.3089844 L225.4875,76.3089844 L225.4875,73.63125 C225.4875,73.475 225.508008,73.3685547 225.549023,73.3119141 C225.590039,73.2552734 225.698438,73.2269531 225.874219,73.2269531 L225.874219,73.2269531 L227.503125,73.2269531 C228.20625,73.2269531 228.659375,73.3050781 228.8625,73.4613281 C229.065625,73.6175781 229.217969,73.9613281 229.319531,74.4925781 L229.319531,74.4925781 L229.624219,74.4925781 L229.583203,72.7699219 L223.208203,72.7699219 L223.208203,72.9925781 C223.653516,73.0238281 223.940625,73.1048828 224.069531,73.2357422 C224.198438,73.3666016 224.262891,73.6449219 224.262891,74.0707031 L224.262891,74.0707031 L224.262891,79.4085938 C224.262891,79.8617188 224.197461,80.1439453 224.066602,80.2552734 C223.935742,80.3666016 223.649609,80.4457031 223.208203,80.4925781 L223.208203,80.4925781 L223.208203,80.709375 L229.694531,80.709375 Z M238.788281,80.709375 L238.788281,80.4925781 C238.3,80.4574219 237.983594,80.3841797 237.839063,80.2728516 C237.694531,80.1615234 237.622266,79.8734375 237.622266,79.4085938 L237.622266,79.4085938 L237.622266,73.2679688 L238.290234,73.2679688 C238.985547,73.2679688 239.441602,73.3646484 239.658398,73.5580078 C239.875195,73.7513672 240.053906,74.1683594 240.194531,74.8089844 L240.194531,74.8089844 L240.481641,74.8089844 L240.417188,72.7699219 L233.637891,72.7699219 L233.567578,74.8089844 L233.860547,74.8089844 C233.981641,74.1644531 234.162305,73.7464844 234.402539,73.5550781 C234.642773,73.3636719 235.094922,73.2679688 235.758984,73.2679688 L235.758984,73.2679688 L236.426953,73.2679688 L236.426953,79.2679688 C236.426953,79.7875 236.364453,80.1117188 236.239453,80.240625 C236.114453,80.3695313 235.798047,80.4535156 235.290234,80.4925781 L235.290234,80.4925781 L235.290234,80.709375 L238.788281,80.709375 Z M247.091016,80.8675781 C247.829297,80.8675781 248.435742,80.6566406 248.910352,80.2347656 C249.384961,79.8128906 249.622266,79.2875 249.622266,78.6585938 C249.622266,78.1898438 249.489453,77.7835938 249.223828,77.4398438 C248.954297,77.1 248.489453,76.7269531 247.829297,76.3207031 L247.829297,76.3207031 L246.774609,75.6703125 C246.380078,75.428125 246.089063,75.1957031 245.901563,74.9730469 C245.714063,74.7542969 245.620313,74.490625 245.620313,74.1820313 C245.620313,73.8382813 245.742383,73.5697266 245.986523,73.3763672 C246.230664,73.1830078 246.516797,73.0863281 246.844922,73.0863281 C247.266797,73.0863281 247.693555,73.2386719 248.125195,73.5433594 C248.556836,73.8480469 248.870313,74.3851563 249.065625,75.1546875 L249.065625,75.1546875 L249.352734,75.1546875 L249.089063,72.6 L248.842969,72.6 C248.811719,72.7289063 248.767773,72.8285156 248.711133,72.8988281 C248.654492,72.9691406 248.551953,73.0042969 248.403516,73.0042969 C248.348828,73.0042969 248.129102,72.9369141 247.744336,72.8021484 C247.35957,72.6673828 247.030469,72.6 246.757031,72.6 C246.092969,72.6 245.559766,72.8011719 245.157422,73.2035156 C244.755078,73.6058594 244.553906,74.1097656 244.553906,74.7152344 C244.553906,75.1722656 244.723828,75.5902344 245.063672,75.9691406 C245.247266,76.1683594 245.493359,76.365625 245.801953,76.5609375 L245.801953,76.5609375 L246.827344,77.1996094 C247.417188,77.5667969 247.803906,77.8421875 247.9875,78.0257813 C248.26875,78.3148438 248.409375,78.6546875 248.409375,79.0453125 C248.409375,79.4789063 248.269727,79.8167969 247.99043,80.0589844 C247.711133,80.3011719 247.380078,80.4222656 246.997266,80.4222656 C246.290234,80.4222656 245.698438,80.1429688 245.221875,79.584375 C244.948438,79.2640625 244.710156,78.834375 244.507031,78.2953125 L244.507031,78.2953125 L244.231641,78.2953125 L244.589063,80.85 L244.852734,80.85 C244.868359,80.7523438 244.900586,80.6605469 244.949414,80.5746094 C244.998242,80.4886719 245.092969,80.4457031 245.233594,80.4457031 C245.292188,80.4457031 245.523633,80.5160156 245.92793,80.6566406 C246.332227,80.7972656 246.719922,80.8675781 247.091016,80.8675781 Z"
            id="HANDCRAFTEDSWEETS"></path>
        </g>
      </g>
    </g>
  </svg>
